<svg width="32px" height="32px" viewBox="0 0 32 32" version="1.1" xmlns="http://www.w3.org/2000/svg" xmlns:xlink="http://www.w3.org/1999/xlink">
    <title>应用</title>
    <defs>
        <linearGradient x1="50%" y1="0%" x2="50%" y2="100%" id="linearGradient-1">
            <stop stop-color="#80B2FF" offset="0%"></stop>
            <stop stop-color="#3385FF" offset="100%"></stop>
        </linearGradient>
    </defs>
    <g id="V3.18.12" stroke="none" stroke-width="1" fill="none" fill-rule="evenodd">
        <g id="状态" transform="translate(-212.000000, -144.000000)">
            <g id="2" transform="translate(198.000000, 134.000000)">
                <g id="应用" transform="translate(14.000000, 10.000000)">
                    <circle id="椭圆形" fill="#E2F1FF" cx="16" cy="16" r="16"></circle>
                    <path d="M8,12.2663707 L15.4100308,16.3697932 L15.4100308,25 L8.31195897,20.9669862 C8.12224922,20.8592434 8.00352742,20.6581821 8.00008205,20.438807 L8,20.4291147 L8,12.2663707 L8,12.2663707 Z M24,12.032598 L24,20.4291147 C24,20.6519823 23.880748,20.8575438 23.688041,20.9669862 L16.6842667,24.9464133 L16.6842667,16.358117 L24,12.032598 L24,12.032598 Z M15.6984,7.07976538 C15.8856103,6.97341154 16.1143897,6.97341154 16.3016,7.07976538 L23.2635897,11.0354266 L16.0379897,15.3077309 L8.53238974,11.1513624 L15.6984,7.07976538 Z" id="形状" fill="url(#linearGradient-1)"></path>
                </g>
            </g>
        </g>
    </g>
</svg>