<?xml version="1.0" encoding="UTF-8"?>
<svg width="16px" height="16px" viewBox="0 0 16 16" version="1.1" xmlns="http://www.w3.org/2000/svg" xmlns:xlink="http://www.w3.org/1999/xlink">
    <title>资产集合</title>
    <g id="页面-1" stroke="none" stroke-width="1" fill="none" fill-rule="evenodd">
        <g id="树形结构-集合组信息" transform="translate(-303.000000, -164.000000)">
            <g id="编组-8" transform="translate(228.000000, 0.000000)">
                <g id="编组-3" transform="translate(24.000000, 24.000000)">
                    <g id="编组" transform="translate(16.000000, 108.000000)">
                        <g id="编组-3" transform="translate(0.000000, 0.000000)">
                            <g id="编组-25" transform="translate(35.000000, 28.000000)">
                                <g id="资产集合" transform="translate(0.000000, 4.000000)">
                                    <rect id="矩形" fill="#82899E" fill-rule="nonzero" opacity="0" x="0" y="0" width="16" height="16"></rect>
                                    <g id="编组" transform="translate(2.000000, 2.000000)">
                                        <polyline id="路径" stroke="#38415C" stroke-width="0.9" stroke-linecap="round" stroke-linejoin="round" points="5 12 0 12 0 0 9 0 9 5"></polyline>
                                        <path d="M6.98591914,2.77165354 L2.28298011,2.77165354 C2.0546821,2.77165354 1.87204369,2.96062992 1.87204369,3.19685039 C1.87204369,3.43307087 2.0546821,3.62204724 2.28298011,3.62204724 L6.98591914,3.62204724 C7.21421715,3.62204724 7.39685556,3.43307087 7.39685556,3.19685039 C7.41207543,2.96062992 7.22943702,2.77165354 6.98591914,2.77165354 L6.98591914,2.77165354 Z M5.20519465,5.4015748 L2.28298011,5.4015748 C2.0546821,5.4015748 1.87204369,5.59055118 1.87204369,5.82677165 C1.87204369,6.06299213 2.0546821,6.2519685 2.28298011,6.2519685 L5.18997479,6.2519685 C5.29651386,6.2519685 5.40305293,6.20472441 5.47915227,6.12598425 C5.55525161,6.04724409 5.60091121,5.93700787 5.60091121,5.81102362 C5.61613107,5.59055118 5.43349267,5.4015748 5.20519465,5.4015748 L5.20519465,5.4015748 Z M3.53100924,8.03149606 L2.29819998,8.03149606 C2.14600131,8.03149606 2.0090225,8.11023622 1.93292316,8.2519685 C1.85682382,8.37795276 1.85682382,8.5511811 1.93292316,8.67716535 C2.0090225,8.80314961 2.14600131,8.8976378 2.29819998,8.8976378 L3.53100924,8.8976378 C3.68320791,8.8976378 3.82018672,8.81889764 3.89628606,8.67716535 C3.97238539,8.5511811 3.97238539,8.37795276 3.89628606,8.2519685 C3.80496685,8.12598425 3.66798805,8.03149606 3.53100924,8.03149606 L3.53100924,8.03149606 Z" id="形状" fill="#38415C" fill-rule="nonzero"></path>
                                        <g transform="translate(6.000000, 7.000000)" fill="#38415C" fill-rule="nonzero">
                                            <path d="M2.44822528,0.297107895 L0.0858441429,4.10664807 C-0.0283698182,4.29073803 -0.0286306162,4.51774465 0.085160097,4.7020629 C0.19895081,4.88638115 0.40948288,5 0.637363884,5 L5.36263612,5 C5.59051712,5 5.80104919,4.88638115 5.9148399,4.7020629 C6.02863062,4.51774465 6.02836982,4.29073803 5.91415586,4.10664807 L3.55177472,0.297107895 C3.43783497,0.113232721 3.22754452,0 3,0 C2.77245548,0 2.56216503,0.113232721 2.44822528,0.297107895 Z M3.12774452,0.389228118 C3.16628351,0.410119686 3.19828419,0.440076114 3.2205569,0.476111531 L5.58319302,4.28565171 C5.6288479,4.35927742 5.62894302,4.45005236 5.58344252,4.52376131 C5.53794201,4.59747027 5.4537636,4.64294487 5.36263612,4.64294487 L0.637363884,4.64294487 C0.546236395,4.64294487 0.462057987,4.59747027 0.416557483,4.52376131 C0.37105698,4.45005236 0.371152096,4.35927742 0.416806982,4.28565171 L2.7794431,0.476111531 C2.8499358,0.362495244 3.00566165,0.323621142 3.12748954,0.389228118 L3.12774452,0.389228118 Z" id="形状" stroke="#38415C" stroke-width="0.3"></path>
                                            <path d="M3.01606368,1.77507792 C3.08169753,1.77500186 3.1443638,1.80059883 3.18884573,1.84565349 C3.23332766,1.89070815 3.25555646,1.95109933 3.25013447,2.01216269 L3.13207916,3.34040777 C3.12800328,3.39808304 3.07670341,3.44291879 3.01478879,3.44291879 C2.95287416,3.44291879 2.90157429,3.39808304 2.89749841,3.34040777 L2.78173791,2.01216269 C2.77646698,1.95105162 2.79881745,1.89066811 2.84337792,1.84563202 C2.88793838,1.80059593 2.95064617,1.77501329 3.01631866,1.77507792 L3.01606368,1.77507792 Z" id="路径" stroke="#38415C" stroke-width="0.2"></path>
                                            <path d="M3.27104276,3.91740885 C3.27104276,3.78594478 3.15688474,3.6793721 3.01606368,3.6793721 C2.87524263,3.6793721 2.7610846,3.78594478 2.7610846,3.91740885 C2.7610846,4.04887292 2.87524263,4.15544561 3.01606368,4.15544561 C3.15688474,4.15544561 3.27104276,4.04887292 3.27104276,3.91740885 Z" id="路径"></path>
                                        </g>
                                    </g>
                                </g>
                            </g>
                        </g>
                    </g>
                </g>
            </g>
        </g>
    </g>
</svg>