<?xml version="1.0" encoding="UTF-8"?>
<svg width="16px" height="16px" viewBox="0 0 16 16" version="1.1" xmlns="http://www.w3.org/2000/svg" xmlns:xlink="http://www.w3.org/1999/xlink">
    <title>编组 23</title>
    <g id="页面-1" stroke="none" stroke-width="1" fill="none" fill-rule="evenodd">
        <g id="树形结构-集合组信息" transform="translate(-283.000000, -136.000000)">
            <g id="编组-8" transform="translate(228.000000, 0.000000)">
                <g id="编组-3" transform="translate(24.000000, 24.000000)">
                    <g id="编组" transform="translate(16.000000, 108.000000)">
                        <g id="编组-3" transform="translate(-0.000000, 0.000000)">
                            <g id="编组-23" transform="translate(15.000000, 4.000000)">
                                <rect id="矩形" x="0" y="0" width="16" height="16"></rect>
                                <g id="编组" transform="translate(2.000000, 2.000000)" fill="#38415C" fill-rule="nonzero">
                                    <path d="M5.98873013,7.80544106 C5.8821681,7.80544106 5.76591862,7.77576257 5.66904405,7.71640561 L0.466879655,4.42209398 C0.292505429,4.31327288 0.185943403,4.11541632 0.185943403,3.89777411 C0.185943403,3.6801319 0.292505429,3.49216818 0.466879655,3.37345425 L5.67873151,0.0890354493 C5.87248065,-0.0296784831 6.11466707,-0.0296784831 6.30841621,0.0890354493 L11.5105806,3.37345425 C11.6849548,3.48227535 11.7915169,3.6801319 11.7915169,3.89777411 C11.7915169,4.11541632 11.6849548,4.30338005 11.5105806,4.42209398 L6.30841621,7.71640561 C6.21154164,7.77576257 6.10497961,7.80544106 5.98873013,7.80544106 Z M1.11593927,3.89777411 L5.98873013,6.97444353 L10.8712084,3.89777411 L5.98873013,0.821104699 L1.11593927,3.89777411 Z" id="形状" stroke="#38415C" stroke-width="0.1"></path>
                                    <path d="M5.98873013,9.90272053 C5.8821681,9.90272053 5.76591862,9.87304204 5.66904405,9.81368508 L0.176255946,6.34130256 L0.583129139,5.66859027 L5.98873013,9.08161583 L11.3943311,5.66859027 L11.8012043,6.34130256 L6.29872875,9.81368508 C6.21154164,9.87304204 6.10497961,9.90272053 5.98873013,9.90272053 Z" id="路径" stroke="#38415C" stroke-width="0.1"></path>
                                    <path d="M5.98873013,12 C5.8821681,12 5.76591862,11.9703215 5.66904405,11.9109646 L0.176255946,8.43858203 L0.583129139,7.76586974 L5.98873013,11.1788953 L11.3943311,7.76586974 L11.8012043,8.43858203 L6.29872875,11.9109646 C6.21154164,11.9703215 6.10497961,12 5.98873013,12 L5.98873013,12 Z" id="路径" stroke="#38415C" stroke-width="0.1"></path>
                                    <path d="M0.215005773,8.47815334 C0.0212566339,8.35943941 -0.0465555649,8.11211871 0.0696939188,7.92415499 C0.176255946,7.73619126 0.41844237,7.66694147 0.612191509,7.77576257 C0.796253192,7.88458368 0.864065391,8.13190437 0.757503364,8.32976092 C0.64125388,8.51772465 0.399067456,8.58697444 0.215005773,8.47815334 Z M0.205318316,6.37098104 C0.011569177,6.25226711 -0.0562430219,6.01483924 0.0503190049,5.81698269 C0.156881032,5.62901896 0.399067456,5.55976917 0.583129139,5.66859027 L0.592816596,5.66859027 C0.776878278,5.77741138 0.844690477,6.02473207 0.73812845,6.2126958 C0.631566423,6.42044518 0.399067456,6.47980214 0.205318316,6.37098104 Z M11.7721419,6.36108821 L11.7624545,6.37098104 C11.5783928,6.48969497 11.3458938,6.430338 11.2296444,6.24237428 C11.1133949,6.05441055 11.1715196,5.81698269 11.3555813,5.69826876 L11.3652688,5.68837593 C11.5493304,5.569662 11.7818294,5.62901896 11.8980789,5.81698269 C12.0143284,6.00494641 11.9562036,6.24237428 11.7721419,6.36108821 L11.7721419,6.36108821 Z M11.8205792,8.4286892 L11.8108918,8.43858203 C11.6268301,8.55729596 11.3943311,8.49793899 11.2780816,8.30997527 C11.1618322,8.12201154 11.2199569,7.88458368 11.4040186,7.76586974 L11.413706,7.75597692 C11.5977677,7.63726298 11.8302667,7.69661995 11.9465162,7.88458368 C12.0530782,8.0725474 11.9949535,8.3198681 11.8205792,8.4286892 Z" id="形状"></path>
                                </g>
                            </g>
                        </g>
                    </g>
                </g>
            </g>
        </g>
    </g>
</svg>