<?xml version="1.0" encoding="UTF-8"?>
<svg width="36px" height="28px" viewBox="0 0 36 28" version="1.1" xmlns="http://www.w3.org/2000/svg" xmlns:xlink="http://www.w3.org/1999/xlink">
    <title>总数据量</title>
    <defs>
        <linearGradient x1="50%" y1="31.6039469%" x2="50%" y2="99.8219242%" id="linearGradient-1">
            <stop stop-color="#5275FD" stop-opacity="0" offset="0%"></stop>
            <stop stop-color="#0351FE" offset="100%"></stop>
        </linearGradient>
        <polygon id="path-2" points="28 6.82201035 21 12.6003827 7 12.6003827 0 6.82201035 7 1.04363804 21 1.04363804"></polygon>
        <filter x="-23.2%" y="-47.6%" width="146.4%" height="212.5%" filterUnits="objectBoundingBox" id="filter-3">
            <feOffset dx="0" dy="1" in="SourceAlpha" result="shadowOffsetOuter1"></feOffset>
            <feMorphology radius="1" operator="erode" in="SourceAlpha" result="shadowInner"></feMorphology>
            <feOffset dx="0" dy="1" in="shadowInner" result="shadowInner"></feOffset>
            <feComposite in="shadowOffsetOuter1" in2="shadowInner" operator="out" result="shadowOffsetOuter1"></feComposite>
            <feGaussianBlur stdDeviation="2" in="shadowOffsetOuter1" result="shadowBlurOuter1"></feGaussianBlur>
            <feColorMatrix values="0 0 0 0 0.0117647059   0 0 0 0 0.503782087   0 0 0 0 0.996078431  0 0 0 1 0" type="matrix" in="shadowBlurOuter1"></feColorMatrix>
        </filter>
        <linearGradient x1="56.5476124%" y1="41.4822483%" x2="50%" y2="58.5177517%" id="linearGradient-4">
            <stop stop-color="#036ABA" stop-opacity="0" offset="0%"></stop>
            <stop stop-color="#1ABCFF" offset="46.1179173%"></stop>
            <stop stop-color="#1ABCFF" stop-opacity="0" offset="100%"></stop>
        </linearGradient>
        <linearGradient x1="50%" y1="6.57507839%" x2="50%" y2="84.1499461%" id="linearGradient-5">
            <stop stop-color="#0265CE" stop-opacity="0" offset="0%"></stop>
            <stop stop-color="#0160FE" stop-opacity="0.727997466" offset="50.7909815%"></stop>
            <stop stop-color="#0156FE" stop-opacity="0.599553035" offset="100%"></stop>
            <stop stop-color="#01E6FE" stop-opacity="0.599553035" offset="100%"></stop>
        </linearGradient>
        <polygon id="path-6" points="25.970611 5.35956641 19.4779582 10.7191328 6.49265275 10.7191328 0 5.35956641 6.49265275 0 19.4779582 0"></polygon>
        <filter x="-8.3%" y="-11.7%" width="116.6%" height="142.0%" filterUnits="objectBoundingBox" id="filter-7">
            <feMorphology radius="0.25" operator="dilate" in="SourceAlpha" result="shadowSpreadOuter1"></feMorphology>
            <feOffset dx="0" dy="1" in="shadowSpreadOuter1" result="shadowOffsetOuter1"></feOffset>
            <feMorphology radius="1" operator="erode" in="SourceAlpha" result="shadowInner"></feMorphology>
            <feOffset dx="0" dy="1" in="shadowInner" result="shadowInner"></feOffset>
            <feComposite in="shadowOffsetOuter1" in2="shadowInner" operator="out" result="shadowOffsetOuter1"></feComposite>
            <feGaussianBlur stdDeviation="0.5" in="shadowOffsetOuter1" result="shadowBlurOuter1"></feGaussianBlur>
            <feColorMatrix values="0 0 0 0 0.00392156863   0 0 0 0 0.901960784   0 0 0 0 0.996078431  0 0 0 1 0" type="matrix" in="shadowBlurOuter1"></feColorMatrix>
        </filter>
        <linearGradient x1="50%" y1="6.57507839%" x2="50%" y2="84.1499461%" id="linearGradient-8">
            <stop stop-color="#015CFE" stop-opacity="0" offset="0%"></stop>
            <stop stop-color="#017CFE" stop-opacity="0.727997466" offset="51.354639%"></stop>
            <stop stop-color="#0172FE" stop-opacity="0.599553035" offset="100%"></stop>
        </linearGradient>
        <polygon id="path-9" points="25.970611 7.28737945 19.4779582 12.6469459 6.49265275 12.6469459 0 7.28737945 6.49265275 1.92781304 19.4779582 1.92781304"></polygon>
        <filter x="-8.3%" y="-11.7%" width="116.6%" height="142.0%" filterUnits="objectBoundingBox" id="filter-10">
            <feMorphology radius="0.25" operator="dilate" in="SourceAlpha" result="shadowSpreadOuter1"></feMorphology>
            <feOffset dx="0" dy="1" in="shadowSpreadOuter1" result="shadowOffsetOuter1"></feOffset>
            <feMorphology radius="1" operator="erode" in="SourceAlpha" result="shadowInner"></feMorphology>
            <feOffset dx="0" dy="1" in="shadowInner" result="shadowInner"></feOffset>
            <feComposite in="shadowOffsetOuter1" in2="shadowInner" operator="out" result="shadowOffsetOuter1"></feComposite>
            <feGaussianBlur stdDeviation="0.5" in="shadowOffsetOuter1" result="shadowBlurOuter1"></feGaussianBlur>
            <feColorMatrix values="0 0 0 0 0.00392156863   0 0 0 0 0.901960784   0 0 0 0 0.996078431  0 0 0 1 0" type="matrix" in="shadowBlurOuter1"></feColorMatrix>
        </filter>
        <linearGradient x1="50.0024596%" y1="12.4037569%" x2="50.0024596%" y2="100%" id="linearGradient-11">
            <stop stop-color="#2494F0" stop-opacity="0" offset="0%"></stop>
            <stop stop-color="#0983B8" stop-opacity="0.454017052" offset="58.2169539%"></stop>
            <stop stop-color="#2494F0" stop-opacity="0" offset="100%"></stop>
        </linearGradient>
        <ellipse id="path-12" cx="17.3078404" cy="4.26723174" rx="1" ry="1"></ellipse>
        <filter x="-317.9%" y="-106.3%" width="523.8%" height="525.2%" filterUnits="objectBoundingBox" id="filter-13">
            <feOffset dx="-1" dy="1" in="SourceAlpha" result="shadowOffsetOuter1"></feOffset>
            <feGaussianBlur stdDeviation="0.5" in="shadowOffsetOuter1" result="shadowBlurOuter1"></feGaussianBlur>
            <feColorMatrix values="0 0 0 0 0.00392156863   0 0 0 0 0.901960784   0 0 0 0 0.996078431  0 0 0 1 0" type="matrix" in="shadowBlurOuter1"></feColorMatrix>
        </filter>
        <ellipse id="path-14" cx="0.245780181" cy="0.734884915" rx="1" ry="1"></ellipse>
        <filter x="-610.3%" y="-204.1%" width="913.7%" height="916.5%" filterUnits="objectBoundingBox" id="filter-15">
            <feOffset dx="-1" dy="1" in="SourceAlpha" result="shadowOffsetOuter1"></feOffset>
            <feGaussianBlur stdDeviation="0.5" in="shadowOffsetOuter1" result="shadowBlurOuter1"></feGaussianBlur>
            <feColorMatrix values="0 0 0 0 0.00392156863   0 0 0 0 0.901960784   0 0 0 0 0.996078431  0 0 0 1 0" type="matrix" in="shadowBlurOuter1"></feColorMatrix>
        </filter>
        <ellipse id="path-16" cx="20.1539749" cy="0.244961638" rx="1" ry="1"></ellipse>
        <filter x="-610.3%" y="-204.1%" width="913.7%" height="916.5%" filterUnits="objectBoundingBox" id="filter-17">
            <feOffset dx="-1" dy="1" in="SourceAlpha" result="shadowOffsetOuter1"></feOffset>
            <feGaussianBlur stdDeviation="0.5" in="shadowOffsetOuter1" result="shadowBlurOuter1"></feGaussianBlur>
            <feColorMatrix values="0 0 0 0 0.00392156863   0 0 0 0 0.901960784   0 0 0 0 0.996078431  0 0 0 1 0" type="matrix" in="shadowBlurOuter1"></feColorMatrix>
        </filter>
        <linearGradient x1="50%" y1="0%" x2="50%" y2="100%" id="linearGradient-18">
            <stop stop-color="#9CEAFF" offset="0%"></stop>
            <stop stop-color="#52C9FD" offset="100%"></stop>
        </linearGradient>
        <path d="M12.1875,1.57041016 C11.0791992,0.633496094 8.94765625,0 6.5,0 C4.05234375,0 1.92080078,0.633496094 0.8125,1.57041016 C0.29453125,2.00839844 0,2.51113281 0,3.046875 L0,7.69208984 C0,7.70097656 0,7.70986328 0.00126953125,7.71748047 L0,7.71748047 L0,9.95185547 C0,11.6339844 2.90976562,12.9987305 6.5,12.9987305 C10.0902344,12.9987305 13,11.6339844 13,9.95185547 L13,7.71875 L12.9987305,7.71875 C13,7.69589844 13,7.67431641 13,7.65146484 L13,3.046875 C13,2.51113281 12.7054687,2.00839844 12.1875,1.57041016 Z M0.8125,4.52333984 C1.92080078,5.46025391 4.05234375,6.09375 6.5,6.09375 C8.94765625,6.09375 11.0791992,5.46025391 12.1875,4.52333984 L12.1875,5.52880859 C11.9602539,5.67480469 11.7114258,5.81064453 11.4410156,5.93759766 C10.1080078,6.56220703 8.35351562,6.90625 6.5,6.90625 C4.64648438,6.90625 2.89199219,6.56220703 1.55898438,5.93632812 C1.28857422,5.809375 1.03974609,5.67353516 0.8125,5.52753906 L0.8125,4.52333984 L0.8125,4.52333984 Z M0.8125,6.825 C1.92080078,7.76191406 4.05234375,8.39541016 6.5,8.39541016 C8.94765625,8.39541016 11.0791992,7.76191406 12.1875,6.825 L12.1875,7.83046875 C11.9602539,7.97519531 11.7114258,8.11230469 11.4410156,8.23925781 C10.1080078,8.86386719 8.35224609,9.20791016 6.5,9.20791016 C4.64775391,9.20791016 2.89199219,8.86386719 1.55898438,8.23925781 C1.28857422,8.11230469 1.03974609,7.97646484 0.8125,7.83046875 L0.8125,6.825 L0.8125,6.825 Z M11.4410156,10.540918 C10.1080078,11.1655273 8.35224609,11.5095703 6.5,11.5095703 C4.64775391,11.5095703 2.89199219,11.1655273 1.55898438,10.540918 C1.30126953,10.4203125 1.06259766,10.2895508 0.84296875,10.1524414 C0.82265625,10.0851562 0.8125,10.0191406 0.8125,9.953125 L0.8125,9.12792969 C1.92080078,10.0648437 4.05234375,10.6983398 6.5,10.6983398 C8.94765625,10.6983398 11.0791992,10.0635742 12.1875,9.12792969 L12.1875,9.953125 C12.1875,10.0178711 12.1773438,10.0851562 12.1570312,10.1524414 C11.9374023,10.2908203 11.6987305,10.4203125 11.4410156,10.540918 Z" id="path-19"></path>
        <filter x="-7.7%" y="-7.7%" width="115.4%" height="130.8%" filterUnits="objectBoundingBox" id="filter-20">
            <feOffset dx="0" dy="2" in="SourceAlpha" result="shadowOffsetOuter1"></feOffset>
            <feColorMatrix values="0 0 0 0 0.166641613   0 0 0 0 0.306849637   0 0 0 0 0.904970473  0 0 0 0.5 0" type="matrix" in="shadowOffsetOuter1"></feColorMatrix>
        </filter>
    </defs>
    <g id="页面-1" stroke="none" stroke-width="1" fill="none" fill-rule="evenodd">
        <g id="大屏-3" transform="translate(-1523.000000, -477.000000)">
            <g id="编组-24备份" transform="translate(1512.000000, 421.000000)">
                <g id="总数据量" transform="translate(15.000000, 56.000000)">
                    <g id="底座">
                        <g id="底座4" transform="translate(0.000000, 9.507586)">
                            <g id="路径-+-路径-蒙版" transform="translate(0.000000, 3.383330)"></g>
                            <g id="编组-7" transform="translate(0.000000, 0.000000)">
                                <g id="多边形备份-8">
                                    <use fill="black" fill-opacity="1" filter="url(#filter-3)" xlink:href="#path-2"></use>
                                    <path stroke="url(#linearGradient-1)" stroke-width="0.737018011" d="M20.86755,1.41214704 L27.4211331,6.82201035 L20.86755,12.2318737 L7.13245004,12.2318737 L0.578866939,6.82201035 L7.13245004,1.41214704 L20.86755,1.41214704 Z" stroke-linejoin="square"></path>
                                </g>
                                <g id="编组-11" transform="translate(14.033984, 7.599897) scale(1, -1) translate(-14.033984, -7.599897) translate(1.048678, 0.000000)" stroke-linejoin="bevel">
                                    <path d="M25.970611,9.84022844 L19.4779582,15.1997949 L6.49265275,15.1997949 L0,9.84022844 L6.49265275,4.48066202 L19.4779582,4.48066202 L25.970611,9.84022844 Z" id="多边形备份-11" stroke="url(#linearGradient-4)" stroke-width="0.5" opacity="0.800000012" stroke-dasharray="0.2742392539978027,0.2742392539978027"></path>
                                    <g id="多边形备份-12" opacity="0.5" stroke-linecap="square">
                                        <use fill="black" fill-opacity="1" filter="url(#filter-7)" xlink:href="#path-6"></use>
                                        <use stroke="url(#linearGradient-5)" stroke-width="0.5" xlink:href="#path-6"></use>
                                    </g>
                                    <g id="多边形备份-13" opacity="0.565420242" stroke-linecap="square">
                                        <use fill="black" fill-opacity="1" filter="url(#filter-10)" xlink:href="#path-9"></use>
                                        <use stroke="url(#linearGradient-8)" stroke-width="0.5" xlink:href="#path-9"></use>
                                    </g>
                                </g>
                            </g>
                        </g>
                        <g id="光影" transform="translate(13.994780, 9.373625) scale(-1, 1) translate(-13.994780, -9.373625) translate(3.794903, 0.000000)">
                            <g id="光" transform="translate(0.194658, 0.000000)" fill="url(#linearGradient-11)" opacity="0.501859392">
                                <rect id="光影" x="0" y="0" width="20" height="18.7472497"></rect>
                            </g>
                            <g id="点点" transform="translate(0.000000, 3.024209)">
                                <g id="椭圆形备份-6">
                                    <use fill="black" fill-opacity="1" filter="url(#filter-13)" xlink:href="#path-12"></use>
                                    <use fill="#FFFFFF" fill-rule="evenodd" xlink:href="#path-12"></use>
                                </g>
                                <g id="椭圆形备份-9">
                                    <use fill="black" fill-opacity="1" filter="url(#filter-15)" xlink:href="#path-14"></use>
                                    <use fill="#FFFFFF" fill-rule="evenodd" xlink:href="#path-14"></use>
                                </g>
                                <g id="椭圆形备份-10" opacity="0.300000012">
                                    <use fill="black" fill-opacity="1" filter="url(#filter-17)" xlink:href="#path-16"></use>
                                    <use fill="#FFFFFF" fill-rule="evenodd" xlink:href="#path-16"></use>
                                </g>
                            </g>
                        </g>
                    </g>
                    <g id="数据库,数据" transform="translate(8.000000, 6.000000)" fill-rule="nonzero">
                        <rect id="矩形" fill="#000000" opacity="0" x="0" y="0" width="13" height="13"></rect>
                        <g id="形状">
                            <use fill="black" fill-opacity="1" filter="url(#filter-20)" xlink:href="#path-19"></use>
                            <use fill="url(#linearGradient-18)" xlink:href="#path-19"></use>
                        </g>
                    </g>
                </g>
            </g>
        </g>
    </g>
</svg>