<?xml version="1.0" standalone="no"?><!DOCTYPE svg PUBLIC "-//W3C//DTD SVG 1.1//EN" "http://www.w3.org/Graphics/SVG/1.1/DTD/svg11.dtd"><svg t="1720494624098" class="icon" viewBox="0 0 1024 1024" version="1.1" xmlns="http://www.w3.org/2000/svg" p-id="1204" xmlns:xlink="http://www.w3.org/1999/xlink" width="200" height="200"><path d="M860.12 444.37v192.71c0 44.94-8.52 87.91-24.03 127.35C785.25 893.69 659.32 985.2 512 985.2c-53 0-96.35-43.35-96.35-96.35 0-26.49 10.84-50.59 28.3-68.04 17.47-17.47 41.55-28.31 68.06-28.31h0.06c56.31-0.01 109.5-13.39 156.55-37.14 85.66-43.23 151.02-120.8 177.99-214.63 8.8-30.6 13.51-62.93 13.51-96.36z" fill="#4770DC" p-id="1205"></path><path d="M509.71 231.52c-60.1 0.87-111.93 35.84-137.02 86.43-10.31 20.79-16.1 44.2-16.1 68.96 0 85.82 69.57 155.41 155.41 155.41 26.49 0 50.58 10.84 68.04 28.3 1.23 1.23 2.44 2.5 3.59 3.8 15.35 17.08 24.72 39.62 24.72 64.25 0 26.49-10.84 50.58-28.31 68.04-17.47 17.47-41.55 28.31-68.04 28.31-1.04 0-2.08-0.01-3.11-0.02-1.03-0.01-2.06-0.04-3.08-0.06-0.67 0-1.34-0.02-2.01-0.05-55.41-1.77-106.29-21.46-147.07-53.44-26.06-20.45-47.99-45.91-64.31-74.96-20.49-36.43-32.18-78.46-32.18-123.23 0-39.81 9.24-77.46 25.7-110.93 7.16-14.6 15.72-28.4 25.47-41.24 45.55-59.94 117.36-98.85 198.3-99.57z" fill="#4770DC" p-id="1206"></path><path d="M503.79 734.9c-46.85-1.07-91.39-11.39-131.9-29.2-84.57-37.22-151.52-107.11-184.86-193.69V512c-11.67-30.29-19.22-62.62-21.97-96.33v-0.01c0.05-0.8 0.12-1.59 0.19-2.37v-0.02a251.69 251.69 0 0 1-1.35-29.59c0-0.67 0.01-1.34 0.04-2.03 0.01-0.48 0.02-0.98 0.04-1.47 0.01-0.99 0.05-1.99 0.09-2.98 3.84-100.97 67.14-186.72 155.89-223.21 0-0.01 0.01-0.01 0.04-0.02 29.15-11.97 61.05-18.65 94.49-18.79 0.39-0.01 0.77-0.01 1.16-0.01 94.28 0 176.45 51.82 219.59 128.53a249.888 249.888 0 0 1 23.55 57.64c5.43 20.22 8.43 41.43 8.62 63.31-0.35-23.92-6.09-46.54-16.09-66.68-25.09-50.59-76.93-85.56-137.02-86.43-0.77-0.01-1.53-0.01-2.29-0.01s-1.53 0-2.29 0.01c-80.94 0.72-152.75 39.62-198.3 99.59a250.242 250.242 0 0 0-25.47 41.24c-16.46 33.47-25.7 71.12-25.7 110.93 0 44.77 11.69 86.81 32.18 123.23 16.32 29.04 38.26 54.51 64.31 74.96 40.77 31.95 91.64 51.65 147.05 53.41z" fill="#6F94F4" p-id="1207"></path><path d="M641.28 723.58c17.04-21.84 26.13-48.84 26.13-76.55V386.92c0-0.76 0-1.53-0.01-2.29-0.19-21.88-3.18-43.09-8.62-63.31a249.888 249.888 0 0 0-23.55-57.64c-43.14-76.71-125.31-128.53-219.59-128.53-0.39 0-0.77 0-1.16 0.01-33.44 0.14-65.33 6.81-94.49 18.79-0.02 0.01-0.04 0.01-0.04 0.02-88.76 36.49-152.05 122.24-155.89 223.21C169.2 189.41 323 38.8 512 38.8c55.85 0 108.64 13.15 155.41 36.53 114.26 57.1 192.71 175.18 192.71 311.59v57.45c0 33.43-4.71 65.76-13.51 96.35-26.97 93.83-92.33 171.4-177.99 214.63-47.06 23.75-100.25 37.14-156.55 37.14 62.38 0 104.69-37.48 129.21-68.91z" fill="#97B4FF" p-id="1208"></path></svg>